<?xml version="1.0" encoding="UTF-8" standalone="no"?>
<!-- Created with Inkscape (http://www.inkscape.org/) -->

<svg
   width="496mm"
   height="364mm"
   viewBox="0 0 496 364"
   version="1.1"
   id="svg1"
   inkscape:version="1.3 (0e150ed6c4, 2023-07-21)"
   sodipodi:docname="404 ERROR .svg"
   xmlns:inkscape="http://www.inkscape.org/namespaces/inkscape"
   xmlns:sodipodi="http://sodipodi.sourceforge.net/DTD/sodipodi-0.dtd"
   xmlns="http://www.w3.org/2000/svg"
   xmlns:svg="http://www.w3.org/2000/svg">
  <sodipodi:namedview
     id="namedview1"
     pagecolor="#ffffff"
     bordercolor="#000000"
     borderopacity="0.25"
     inkscape:showpageshadow="2"
     inkscape:pageopacity="0.0"
     inkscape:pagecheckerboard="0"
     inkscape:deskcolor="#d1d1d1"
     inkscape:document-units="mm"
     showgrid="true"
     inkscape:zoom="0.22627417"
     inkscape:cx="830.85047"
     inkscape:cy="585.5728"
     inkscape:window-width="1366"
     inkscape:window-height="705"
     inkscape:window-x="-8"
     inkscape:window-y="-8"
     inkscape:window-maximized="1"
     inkscape:current-layer="layer1" />
  <defs
     id="defs1" />
  <g
     inkscape:label="Layer 1"
     inkscape:groupmode="layer"
     id="layer1">
    <path
       id="path1"
       style="fill:#e6e6e6;stroke:#000000;stroke-width:0;stroke-linecap:butt;stroke-linejoin:miter;stroke-dasharray:none;stroke-opacity:1"
       d="M 139.07646,89.418752 87.482706,119.31667 174.00146,169.5875 226.12437,139.425 Z m 0.52916,20.108338 52.3875,29.89791 -17.99166,10.31875 -51.59375,-30.42708 z" />
    <path
       style="fill:#e6e6e6;fill-opacity:1;stroke:#000000;stroke-width:0;stroke-linecap:butt;stroke-linejoin:miter;stroke-dasharray:none;stroke-opacity:1"
       d="m 52.384826,139.26413 17.39924,-10.28988 86.434974,50.51394 -17.39925,10.10279 -34.42431,-20.57976 -34.611414,20.57976 -52.104189,-30.40191 17.492792,-10.00924 34.704947,20.01848 17.39925,-10.19633 z"
       id="path4" />
    <g
       id="g22"
       style="fill:#999999"
       transform="translate(0,28.0633)">
      <path
         style="fill:#999999;stroke:#000000;stroke-width:0;stroke-linecap:butt;stroke-linejoin:miter;stroke-dasharray:none;stroke-opacity:1"
         d="m 69.784066,101.09804 0.18709,20.01849 17.21216,9.91569 v 20.01849 l 17.025074,-10.28987 34.6114,20.57975 17.39925,-9.9157 z"
         id="path5" />
      <path
         style="fill:#999999;stroke:#000000;stroke-width:0;stroke-linecap:butt;stroke-linejoin:miter;stroke-dasharray:none;stroke-opacity:1"
         d="m 35.172669,121.11653 -0.09354,20.01848 34.798487,20.29912 -0.0935,-20.48621 z"
         id="path6" />
    </g>
    <path
       style="fill:#e6e6e6;fill-opacity:1;stroke:#000000;stroke-width:0;stroke-linecap:butt;stroke-linejoin:miter;stroke-dasharray:none;stroke-opacity:1"
       d="m 191.57461,58.341296 17.39924,-10.289881 86.43497,50.513941 -17.39925,10.102794 -34.42431,-20.579764 -34.61141,20.579764 -52.10419,-30.401914 17.49279,-10.00924 34.70495,20.01848 17.39925,-10.19633 z"
       id="path4-97" />
    <g
       id="g21"
       style="fill:#999999"
       transform="translate(0,28.0633)">
      <path
         style="fill:#999999;stroke:#000000;stroke-width:0;stroke-linecap:butt;stroke-linejoin:miter;stroke-dasharray:none;stroke-opacity:1"
         d="m 208.97385,20.175204 0.18709,20.018492 17.21216,9.91569 v 20.01849 l 17.02507,-10.28987 34.6114,20.57975 17.39925,-9.9157 z"
         id="path5-9" />
      <path
         style="fill:#999999;stroke:#000000;stroke-width:0;stroke-linecap:butt;stroke-linejoin:miter;stroke-dasharray:none;stroke-opacity:1"
         d="m 174.36245,40.193696 -0.0935,20.01848 34.79849,20.29912 -0.0935,-20.48621 z"
         id="path6-6" />
    </g>
    <g
       id="g23"
       style="fill:#999999"
       transform="translate(0,28.0633)">
      <path
         style="fill:#999999;stroke:#000000;stroke-width:0;stroke-linecap:butt;stroke-linejoin:miter;stroke-dasharray:none;stroke-opacity:1"
         d="m 139.19397,61.62233 v 19.831399 l 52.70717,29.931741 -0.33073,19.84375 34.39583,-19.97604 z"
         id="path7" />
      <path
         style="fill:#999999;stroke:#000000;stroke-width:0;stroke-linecap:butt;stroke-linejoin:miter;stroke-dasharray:none;stroke-opacity:1"
         d="m 122.44953,91.229112 0.14032,20.392668 51.41884,29.92619 -0.0331,-19.7776 z"
         id="path8" />
    </g>
    <path
       id="path1-4"
       style="fill:#cccccc;stroke:#000000;stroke-width:0;stroke-linecap:butt;stroke-linejoin:miter;stroke-dasharray:none;stroke-opacity:1"
       d="m 331.12605,120.33674 -51.59375,29.89792 86.51875,50.27083 52.12291,-30.1625 z m 0.52916,20.10833 52.3875,29.89792 -17.99166,10.31875 -51.59375,-30.42708 z" />
    <g
       id="g19"
       style="fill:#999999"
       transform="translate(0,28.0633)">
      <path
         style="fill:#999999;stroke:#000000;stroke-width:0;stroke-linecap:butt;stroke-linejoin:miter;stroke-dasharray:none;stroke-opacity:1"
         d="m 331.24356,92.540316 v 19.831394 l 52.70717,29.93175 -0.33073,19.84375 34.39583,-19.97604 z"
         id="path7-9" />
      <path
         style="fill:#999999;stroke:#000000;stroke-width:0;stroke-linecap:butt;stroke-linejoin:miter;stroke-dasharray:none;stroke-opacity:1"
         d="m 314.49912,122.1471 0.14032,20.39267 51.41884,29.92619 -0.0331,-19.7776 z"
         id="path8-4" />
    </g>
    <path
       id="path9"
       style="fill:#cccccc;stroke:#000000;stroke-width:0;stroke-linecap:butt;stroke-linejoin:miter;stroke-dasharray:none;stroke-opacity:1"
       d="m 190.37598,201.48941 -51.67643,29.76563 86.18957,50.1835 17.68574,-10.08569 -34.64078,-20.0241 51.68832,9.89862 18.03146,-10.33736 -52.32652,-9.64644 16.72507,-9.57512 z m 0.10335,19.84375 17.15658,10.02523 -17.36328,9.92187 -17.05323,-9.92187 z" />
    <path
       id="path9-4"
       style="fill:#cccccc;stroke:#000000;stroke-width:0;stroke-linecap:butt;stroke-linejoin:miter;stroke-dasharray:none;stroke-opacity:1"
       d="m 259.57279,161.31409 -51.67643,29.76563 86.18957,50.1835 17.68574,-10.08569 -34.64078,-20.0241 51.68832,9.89862 18.03146,-10.33736 -52.32652,-9.64644 16.72507,-9.57512 z m 0.10335,19.84375 17.15658,10.02523 -17.36328,9.92187 -17.05323,-9.92187 z" />
    <path
       id="path9-4-1"
       style="fill:#cccccc;stroke:#000000;stroke-width:0;stroke-linecap:butt;stroke-linejoin:miter;stroke-dasharray:none;stroke-opacity:1"
       d="m 396.3293,83.261998 -51.67643,29.765632 86.18957,50.1835 17.68574,-10.08569 -34.64078,-20.0241 51.68832,9.89862 18.03146,-10.33736 -52.32652,-9.64644 16.72507,-9.57512 z m 0.10335,19.843752 17.15658,10.02523 -17.36328,9.92187 -17.05323,-9.92187 z" />
    <g
       id="g17"
       style="fill:#999999"
       transform="translate(0,28.0633)">
      <path
         style="fill:#999999;stroke:#000000;stroke-width:0;stroke-linecap:butt;stroke-linejoin:miter;stroke-dasharray:none;stroke-opacity:1"
         d="m 173.00121,203.2411 -0.14616,20.02433 17.3934,10.08525 -0.14616,-20.1705 z"
         id="path10" />
      <path
         style="fill:#999999;stroke:#000000;stroke-width:0;stroke-linecap:butt;stroke-linejoin:miter;stroke-dasharray:none;stroke-opacity:1"
         d="m 190.37598,173.52946 v 19.63705 l 17.25993,10.12858 0.1521,19.67802 52.32635,10.37757 17.24726,-10.37757 -52.1802,-9.79293 16.80875,-9.64676 z"
         id="path11" />
      <path
         style="fill:#999999;stroke:#000000;stroke-width:0;stroke-linecap:butt;stroke-linejoin:miter;stroke-dasharray:none;stroke-opacity:1"
         d="m 207.73926,222.82878 -0.41341,20.46386 17.56998,10.12858 17.57,-10.12858 z"
         id="path12" />
    </g>
    <g
       id="g18"
       style="fill:#999999"
       transform="translate(0,28.0633)">
      <path
         style="fill:#999999;stroke:#000000;stroke-width:0;stroke-linecap:butt;stroke-linejoin:miter;stroke-dasharray:none;stroke-opacity:1"
         d="m 242.19802,163.06578 -0.14616,20.02433 17.3934,10.08525 -0.14616,-20.1705 z"
         id="path10-0" />
      <path
         style="fill:#999999;stroke:#000000;stroke-width:0;stroke-linecap:butt;stroke-linejoin:miter;stroke-dasharray:none;stroke-opacity:1"
         d="m 259.57279,133.35414 v 19.63705 l 17.25993,10.12858 0.1521,19.67802 52.32635,10.37757 17.24726,-10.37757 -52.1802,-9.79293 16.80875,-9.64676 z"
         id="path11-8" />
      <path
         style="fill:#999999;stroke:#000000;stroke-width:0;stroke-linecap:butt;stroke-linejoin:miter;stroke-dasharray:none;stroke-opacity:1"
         d="m 277.89518,183.09167 -0.41341,20.46386 17.56998,10.12858 17.57,-10.12858 z"
         id="path12-0" />
    </g>
    <g
       id="g20"
       style="fill:#999999"
       transform="translate(0,28.0633)">
      <path
         style="fill:#999999;stroke:#000000;stroke-width:0;stroke-linecap:butt;stroke-linejoin:miter;stroke-dasharray:none;stroke-opacity:1"
         d="m 378.95453,85.013688 -0.14616,20.024332 17.3934,10.08525 -0.14616,-20.170502 z"
         id="path10-0-5" />
      <path
         style="fill:#999999;stroke:#000000;stroke-width:0;stroke-linecap:butt;stroke-linejoin:miter;stroke-dasharray:none;stroke-opacity:1"
         d="m 396.3293,55.302048 v 19.63705 l 17.25993,10.12858 0.1521,19.678022 52.32635,10.37757 17.24726,-10.37757 -52.1802,-9.792932 16.80875,-9.64676 z"
         id="path11-8-8" />
      <path
         style="fill:#999999;stroke:#000000;stroke-width:0;stroke-linecap:butt;stroke-linejoin:miter;stroke-dasharray:none;stroke-opacity:1"
         d="m 414.51941,105.43646 -0.41341,20.46386 17.56998,10.12858 17.57,-10.12858 z"
         id="path12-0-6" />
    </g>
    <path
       style="fill:#cccccc;stroke:#000000;stroke-width:0;stroke-linecap:butt;stroke-linejoin:miter;stroke-dasharray:none;stroke-opacity:1"
       d="m 121.12956,241.38361 -51.904094,30.26178 86.528514,49.98775 52.32636,-30.10958 -18.41654,-10.23141 -33.6175,20.75515 -17.83189,-10.52374 34.79829,-20.27097 -17.36328,-9.92187 -34.62321,19.9471 -17.36328,-9.92188 34.93326,-19.9471 z"
       id="path13" />
    <g
       id="g16"
       style="fill:#999999"
       transform="translate(0,28.0633)">
      <path
         style="fill:#999999;stroke:#000000;stroke-width:0;stroke-linecap:butt;stroke-linejoin:miter;stroke-dasharray:none;stroke-opacity:1"
         d="m 121.02621,213.32031 v 20.05046 l 17.25992,-10.02523 z"
         id="path14" />
      <path
         style="fill:#999999;stroke:#000000;stroke-width:0;stroke-linecap:butt;stroke-linejoin:miter;stroke-dasharray:none;stroke-opacity:1"
         d="M 155.64918,233.34144 V 253.3919 L 172.9091,243.36667 Z"
         id="path14-5" />
      <path
         style="fill:#999999;stroke:#000000;stroke-width:0;stroke-linecap:butt;stroke-linejoin:miter;stroke-dasharray:none;stroke-opacity:1"
         d="m 190.40978,253.47752 v 20.05046 l 17.25992,-10.02523 z"
         id="path14-5-9" />
      <path
         style="fill:#999999;stroke:#000000;stroke-width:0;stroke-linecap:butt;stroke-linejoin:miter;stroke-dasharray:none;stroke-opacity:1"
         d="m 103.86963,243.29264 v 20.25716 l 17.05322,9.92188 v -20.36051 z"
         id="path15" />
      <path
         style="fill:#999999;stroke:#000000;stroke-width:0;stroke-linecap:butt;stroke-linejoin:miter;stroke-dasharray:none;stroke-opacity:1"
         d="m 138.23446,263.49813 -0.15503,19.79207 17.67455,10.2431 0.2055,-19.4415 z"
         id="path16" />
    </g>
  </g>
</svg>
