<?xml version="1.0" encoding="UTF-8" standalone="no"?>
<!-- Created with Inkscape (http://www.inkscape.org/) -->

<svg
   width="210mm"
   height="297mm"
   viewBox="0 0 210 297"
   version="1.1"
   id="svg1"
   inkscape:version="1.3 (0e150ed6c4, 2023-07-21)"
   sodipodi:docname="400.svg"
   inkscape:export-filename="402 payment reqirement\402  (original).png"
   inkscape:export-xdpi="92"
   inkscape:export-ydpi="92"
   xmlns:inkscape="http://www.inkscape.org/namespaces/inkscape"
   xmlns:sodipodi="http://sodipodi.sourceforge.net/DTD/sodipodi-0.dtd"
   xmlns="http://www.w3.org/2000/svg"
   xmlns:svg="http://www.w3.org/2000/svg">
  <sodipodi:namedview
     id="namedview1"
     pagecolor="#ffffff"
     bordercolor="#000000"
     borderopacity="0.25"
     inkscape:showpageshadow="2"
     inkscape:pageopacity="0.0"
     inkscape:pagecheckerboard="0"
     inkscape:deskcolor="#d1d1d1"
     inkscape:document-units="mm"
     inkscape:zoom="0.16"
     inkscape:cx="271.875"
     inkscape:cy="728.125"
     inkscape:window-width="1366"
     inkscape:window-height="705"
     inkscape:window-x="-8"
     inkscape:window-y="-8"
     inkscape:window-maximized="1"
     inkscape:current-layer="layer1"
     showgrid="true" />
  <defs
     id="defs1" />
  <g
     inkscape:label="Layer 1"
     inkscape:groupmode="layer"
     id="layer1">
    <path
       style="fill:#f6f6f6;fill-opacity:1;stroke:#000000;stroke-width:0.264583px;stroke-linecap:butt;stroke-linejoin:miter;stroke-opacity:1"
       d="m 12.466329,172.02934 12.321952,-7.11977 24.315391,14.04971 12.053606,-6.9647 -24.154327,-13.95664 12.104754,-6.99426 60.685435,35.06473 -12.506374,7.22632 -24.189495,-13.97696 -24.270447,14.02374 z"
       id="path1-3-8-5" />
    <path
       style="fill:#f6f6f6;fill-opacity:1;stroke:#000000;stroke-width:0.264583px;stroke-linecap:butt;stroke-linejoin:miter;stroke-opacity:1"
       d="m 61.143385,144.09934 36.752608,-21.23606 60.497747,34.95628 -36.69644,21.2036 z"
       id="path2-6-6-6" />
    <path
       style="fill:#f6f6f6;fill-opacity:1;stroke:#000000;stroke-width:0.264583px;stroke-linecap:butt;stroke-linejoin:miter;stroke-opacity:1"
       d="m 85.198482,144.09934 12.514515,-7.23101 36.367773,21.0137 -12.61717,7.29035 z"
       id="path3-1-9-5" />
    <g
       id="g49"
       transform="matrix(1.4005545,0,0,1.4016725,-171.96701,-486.09767)"
       style="stroke-width:0.713718">
      <path
         style="fill:#cccccc;stroke:none;stroke-width:0.188838px;stroke-linecap:butt;stroke-linejoin:miter;stroke-opacity:1"
         d="m 157.80613,454.65117 -0.0384,9.62701 c 3.1784,1.90782 6.40667,3.81258 8.81297,5.20219 l -0.0864,10.00094 c 2.80619,-1.63406 5.83525,-3.33971 8.41857,-4.90217 l 17.23939,9.9759 c 2.56714,-1.46629 6.10961,-3.38414 8.68947,-5.01687 -13.68112,-7.73355 -28.6439,-16.59245 -43.03566,-24.887 z"
         id="path9-07-6"
         sodipodi:nodetypes="cccccccc" />
      <path
         style="fill:#cccccc;stroke:none;stroke-width:0.188838px;stroke-linecap:butt;stroke-linejoin:miter;stroke-opacity:1"
         d="m 140.31989,464.61938 0.0192,9.84708 17.24359,10.03588 v -9.84533 z"
         id="path10-9-4"
         sodipodi:nodetypes="ccccc" />
    </g>
    <g
       id="g48"
       transform="matrix(1.4005545,0,0,1.4016725,-171.96701,-486.09767)"
       style="stroke-width:0.713718">
      <path
         style="fill:#cccccc;fill-opacity:1;stroke:none;stroke-width:0.188838px;stroke-linecap:butt;stroke-linejoin:miter;stroke-opacity:1"
         d="m 183.42499,449.62117 0.31665,9.78819 c 10.11456,5.75347 17.95674,10.21892 25.85873,14.91437 l -0.0447,-9.49169 c -4.94929,-3.03143 -16.48486,-9.42673 -26.13069,-15.21087 z"
         id="path11-5-0"
         sodipodi:nodetypes="ccccc" />
      <path
         style="fill:#cccccc;fill-opacity:1;stroke:none;stroke-width:0.188838px;stroke-linecap:butt;stroke-linejoin:miter;stroke-opacity:1"
         d="m 192.51214,434.63843 0.0768,9.61438 c 8.74456,4.95088 17.48912,10.0482 26.23368,15.19947 l -0.1919,9.69245 c 5.42686,-3.15212 10.92343,-6.5176 16.85004,-9.72576 -12.31914,-7.09396 -27.53149,-15.90212 -42.96858,-24.78054 z"
         id="path12-08-5"
         sodipodi:nodetypes="cccccc" />
    </g>
    <path
       style="fill:#f2f2f2;stroke:#000000;stroke-width:0.264583px;stroke-linecap:butt;stroke-linejoin:miter;stroke-opacity:1"
       d="m 109.54687,115.41344 36.27776,-20.961686 60.48044,34.946256 -36.29363,20.97088 -12.26357,-7.08602 24.41997,-14.11013 -12.05876,-6.96769 -24.38019,14.08715 -12.18575,-7.04107 24.52398,-14.17022 -12.00479,-6.9365 -24.6796,14.26016 z"
       id="path13" />
    <g
       id="g47"
       transform="matrix(1.4005545,0,0,1.4016725,-171.96701,-486.09767)"
       style="stroke-width:0.713718">
      <path
         style="fill:#cccccc;fill-opacity:1;stroke:none;stroke-width:0.188838px;stroke-linecap:butt;stroke-linejoin:miter;stroke-opacity:1"
         d="m 235.82465,428.93408 c -0.056,3.26021 -0.18575,6.52041 -0.0768,9.78062 l -8.84788,5.25894 c -2.8565,-1.60949 -5.713,-3.27213 -8.5695,-4.95314 0,0 17.4435,-10.09999 17.49414,-10.08642 z"
         id="path14"
         sodipodi:nodetypes="ccccc" />
      <path
         style="fill:#cccccc;fill-opacity:1;stroke:none;stroke-width:0.188838px;stroke-linecap:butt;stroke-linejoin:miter;stroke-opacity:1"
         d="m 253.03909,439.00998 -0.0672,9.83997 -8.81909,5.11867 -8.48314,-4.98011 c 0.10488,-0.059 17.46808,-10.07605 17.3694,-9.97853 z"
         id="path14-8"
         sodipodi:nodetypes="ccccc" />
      <path
         style="fill:#cccccc;fill-opacity:1;stroke:none;stroke-width:0.188838px;stroke-linecap:butt;stroke-linejoin:miter;stroke-opacity:1"
         d="m 226.96555,414.31597 c 0.005,3.21645 0.0334,6.35858 0.11515,9.48897 l -17.54716,10.16746 -8.40103,-4.85033 z"
         id="path15"
         sodipodi:nodetypes="ccccc" />
    </g>
  </g>
</svg>
