<?xml version="1.0" encoding="UTF-8" standalone="no"?>
<!-- Created with Inkscape (http://www.inkscape.org/) -->

<svg
   width="210mm"
   height="297mm"
   viewBox="0 0 210 297"
   version="1.1"
   id="svg1"
   inkscape:version="1.3 (0e150ed6c4, 2023-07-21)"
   sodipodi:docname="400.svg"
   inkscape:export-filename="401 Authorized\401  (32).svg"
   inkscape:export-xdpi="32"
   inkscape:export-ydpi="32"
   xmlns:inkscape="http://www.inkscape.org/namespaces/inkscape"
   xmlns:sodipodi="http://sodipodi.sourceforge.net/DTD/sodipodi-0.dtd"
   xmlns="http://www.w3.org/2000/svg"
   xmlns:svg="http://www.w3.org/2000/svg">
  <sodipodi:namedview
     id="namedview1"
     pagecolor="#ffffff"
     bordercolor="#000000"
     borderopacity="0.25"
     inkscape:showpageshadow="2"
     inkscape:pageopacity="0.0"
     inkscape:pagecheckerboard="0"
     inkscape:deskcolor="#d1d1d1"
     inkscape:document-units="mm"
     inkscape:zoom="0.16"
     inkscape:cx="271.875"
     inkscape:cy="728.125"
     inkscape:window-width="1366"
     inkscape:window-height="705"
     inkscape:window-x="-8"
     inkscape:window-y="-8"
     inkscape:window-maximized="1"
     inkscape:current-layer="layer1"
     showgrid="true" />
  <defs
     id="defs1" />
  <g
     inkscape:label="Layer 1"
     inkscape:groupmode="layer"
     id="layer1">
    <path
       style="fill:#f9f9f9;fill-opacity:1;stroke:#000000;stroke-width:0.264582px;stroke-linecap:butt;stroke-linejoin:miter;stroke-opacity:1"
       d="m 18.632863,168.82523 11.98452,-6.92538 23.649524,13.6661 11.723524,-6.77454 -23.492871,-13.57557 11.773271,-6.80329 59.023599,34.10734 -12.16389,7.02902 -23.527088,-13.59534 -23.605811,13.64083 z"
       id="path1-3-0-7" />
    <path
       style="fill:#cccccc;stroke:none;stroke-width:0.264582px;stroke-linecap:butt;stroke-linejoin:miter;stroke-opacity:1"
       d="m 54.239827,148.62677 0.156844,13.32836 11.770246,6.71356 0.156844,13.57489 11.26468,-6.50092 23.554019,13.53822 11.74756,-6.75675 z"
       id="path9-0-4"
       sodipodi:nodetypes="cccccccc" />
    <path
       style="fill:#cccccc;stroke:none;stroke-width:0.264582px;stroke-linecap:butt;stroke-linejoin:miter;stroke-opacity:1"
       d="m 30.59063,161.87962 -0.0095,13.78083 23.495105,13.78435 0.234558,-13.64007 z"
       id="path10-5-7"
       sodipodi:nodetypes="ccccc" />
    <path
       style="fill:#f9f9f9;fill-opacity:1;stroke:#000000;stroke-width:0.264582px;stroke-linecap:butt;stroke-linejoin:miter;stroke-opacity:1"
       d="m 66.626851,140.94336 35.746159,-20.65625 58.84106,34.00185 -35.69154,20.62467 z"
       id="path2-6-9" />
    <path
       style="fill:#f6f6f6;fill-opacity:1;stroke:#000000;stroke-width:0.264582px;stroke-linecap:butt;stroke-linejoin:miter;stroke-opacity:1"
       d="m 90.02321,140.94336 12.17182,-7.03359 35.37186,20.43996 -12.27166,7.0913 z"
       id="path3-1-0" />
    <path
       style="fill:#cccccc;fill-opacity:1;stroke:none;stroke-width:0.264582px;stroke-linecap:butt;stroke-linejoin:miter;stroke-opacity:1"
       d="m 89.665646,141.01637 0.135675,13.04495 35.722969,20.67828 -0.12097,-13.00537 z"
       id="path11-8"
       sodipodi:nodetypes="ccccc" />
    <path
       style="fill:#cccccc;fill-opacity:1;stroke:none;stroke-width:0.264582px;stroke-linecap:butt;stroke-linejoin:miter;stroke-opacity:1"
       d="m 102.40304,120.57561 -0.0185,13.13959 c 11.87169,6.89298 23.75758,14.12273 35.53462,20.6429 l 0.14788,13.07636 22.65818,-13.15906 c -19.01416,-11.00647 -38.12586,-22.05411 -58.32215,-33.69979 z"
       id="path12-0"
       sodipodi:nodetypes="cccccc" />
    <path
       style="fill:#f9f9f9;stroke:#000000;stroke-width:0.264582px;stroke-linecap:butt;stroke-linejoin:miter;stroke-opacity:1"
       d="m 113.94894,113.46326 59.43468,34.34488 11.92197,-6.88923 -59.45593,-34.35715 z"
       id="path21-2" />
    <path
       style="fill:#cccccc;stroke:none;stroke-width:0.264582px;stroke-linecap:butt;stroke-linejoin:miter;stroke-opacity:1"
       d="m 125.81616,106.71251 0.1848,13.41827 c 23.3672,13.49076 31.21315,18.11781 47.3589,27.47082 l 11.52786,-6.71121 C 166.2391,130.17357 146.01868,118.40334 125.81616,106.71251 Z"
       id="path22-7"
       sodipodi:nodetypes="ccccc" />
  </g>
</svg>
