<?xml version="1.0" encoding="UTF-8" standalone="no"?>
<!-- Created with Inkscape (http://www.inkscape.org/) -->

<svg
   width="210mm"
   height="297mm"
   viewBox="0 0 210 297"
   version="1.1"
   id="svg1"
   inkscape:version="1.3 (0e150ed6c4, 2023-07-21)"
   sodipodi:docname="400.svg"
   inkscape:export-filename="400 Bad Request\400 (64 dpi).svg"
   inkscape:export-xdpi="64"
   inkscape:export-ydpi="64"
   xmlns:inkscape="http://www.inkscape.org/namespaces/inkscape"
   xmlns:sodipodi="http://sodipodi.sourceforge.net/DTD/sodipodi-0.dtd"
   xmlns="http://www.w3.org/2000/svg"
   xmlns:svg="http://www.w3.org/2000/svg">
  <sodipodi:namedview
     id="namedview1"
     pagecolor="#ffffff"
     bordercolor="#000000"
     borderopacity="0.25"
     inkscape:showpageshadow="2"
     inkscape:pageopacity="0.0"
     inkscape:pagecheckerboard="0"
     inkscape:deskcolor="#d1d1d1"
     inkscape:document-units="mm"
     inkscape:zoom="0.16"
     inkscape:cx="271.875"
     inkscape:cy="728.125"
     inkscape:window-width="1366"
     inkscape:window-height="705"
     inkscape:window-x="-8"
     inkscape:window-y="-8"
     inkscape:window-maximized="1"
     inkscape:current-layer="layer1"
     showgrid="true">
    <inkscape:grid
       type="axonomgrid"
       id="grid1"
       units="mm"
       originx="0"
       originy="0"
       spacingx="0"
       spacingy="10"
       empcolor="#0099e5"
       empopacity="0.30196078"
       color="#0099e5"
       opacity="0.14901961"
       empspacing="5"
       dotted="false"
       gridanglex="30"
       gridanglez="30"
       visible="true" />
  </sodipodi:namedview>
  <defs
     id="defs1" />
  <g
     inkscape:label="Layer 1"
     inkscape:groupmode="layer"
     id="layer1">
    <path
       style="fill:#f6f6f6;fill-opacity:1;stroke:#000000;stroke-width:0.264583px;stroke-linecap:butt;stroke-linejoin:miter;stroke-opacity:1"
       d="m -110.25509,584.45281 8.79791,-5.07948 17.361257,10.02353 8.60631,-4.96885 -17.24626,-9.95713 8.64283,-4.98994 43.32958,25.01635 -8.92959,5.1555 -17.27137,-9.97163 -17.32917,10.005 z"
       id="path1-3" />
    <path
       style="fill:#f6f6f6;fill-opacity:1;stroke:#000000;stroke-width:0.264583px;stroke-linecap:butt;stroke-linejoin:miter;stroke-opacity:1"
       d="m -75.499533,564.52662 26.24147,-15.15052 43.1955702,24.93898 -26.2013702,15.12736 z"
       id="path2-6" />
    <path
       style="fill:#f6f6f6;fill-opacity:1;stroke:#000000;stroke-width:0.264583px;stroke-linecap:butt;stroke-linejoin:miter;stroke-opacity:1"
       d="m -58.324123,564.52662 8.9354,-5.15885 25.9667,14.99188 -9.0087,5.20118 z"
       id="path3-1" />
    <path
       style="fill:none;stroke:#000000;stroke-width:0.264583px;stroke-linecap:butt;stroke-linejoin:miter;stroke-opacity:1"
       d="m 218.47638,379.80571 -25.77979,14.88397 -8.70807,-5.0276 17.25328,-9.96119 -8.66992,-5.00558 -17.64931,10.18983 -25.74557,-14.86422 26.47714,-15.28659 8.34128,4.81584 -17.67468,10.20449 8.79756,5.07928 17.5846,-10.15247 z"
       id="path4-1" />
    <path
       style="fill:#f6f6f6;fill-opacity:1;stroke:#000000;stroke-width:0.264583px;stroke-linecap:butt;stroke-linejoin:miter;stroke-opacity:1"
       d="m -15.361113,530.01557 -26.1025,15.07028 8.92107,5.15059 17.59605,-10.15909 8.5256802,4.92231 -17.4670902,10.08463 26.0134502,15.01887 26.0185498,-15.02182 -8.68534,-5.01448 -17.5021098,10.10485 -8.69465,-5.01986 17.5195498,-10.11491 z"
       id="path6-9" />
    <path
       style="fill:#f9f9f9;stroke:#000000;stroke-width:0.264583px;stroke-linecap:butt;stroke-linejoin:miter;stroke-opacity:1"
       d="m 28.522957,384.92873 26.12498,-15.08324 43.50551,25.1179 -26.12706,15.08447 -8.63185,-4.9836 17.51926,-10.11475 -8.83707,-5.10209 -17.52326,10.11706 z"
       id="path7" />
    <path
       style="fill:#f9f9f9;stroke:#000000;stroke-width:0.264583px;stroke-linecap:butt;stroke-linejoin:miter;stroke-opacity:1"
       d="m 45.679637,385.13692 8.84184,-5.10484 8.78382,5.07135 -8.82134,5.093 z"
       id="path8" />
    <path
       style="fill:#cccccc;stroke:none;stroke-width:0.264583px;stroke-linecap:butt;stroke-linejoin:miter;stroke-opacity:1"
       d="m -84.250043,569.36917 v 9.93451 l 8.86094,5.11587 v 9.8445 l 8.32262,-4.80507 17.31615,9.99748 8.68947,-5.01687 z"
       id="path9" />
    <path
       style="fill:#cccccc;stroke:none;stroke-width:0.264583px;stroke-linecap:butt;stroke-linejoin:miter;stroke-opacity:1"
       d="m -101.62114,579.26773 v 10.19093 l 17.262777,9.96668 v -9.98133 z"
       id="path10" />
    <path
       style="fill:#f9f9f9;fill-opacity:1;stroke:#000000;stroke-width:0.264583px;stroke-linecap:butt;stroke-linejoin:miter;stroke-opacity:1"
       d="m -41.324103,425.18498 8.79791,-5.07948 17.36126,10.02353 8.6063102,-4.96885 -17.2462602,-9.95713 8.64283,-4.98994 43.32958,25.01635 -8.92959,5.1555 -17.2713698,-9.97163 -17.3291702,10.005 z"
       id="path1-3-0" />
    <path
       style="fill:#cccccc;stroke:none;stroke-width:0.264583px;stroke-linecap:butt;stroke-linejoin:miter;stroke-opacity:1"
       d="m -15.184813,410.37023 0.11514,9.77581 8.6406102,4.92413 0.11514,9.95663 8.26947,-4.76816 17.2911398,9.92973 8.62396,-4.9558 z"
       id="path9-0"
       sodipodi:nodetypes="cccccccc" />
    <path
       style="fill:#cccccc;stroke:none;stroke-width:0.264583px;stroke-linecap:butt;stroke-linejoin:miter;stroke-opacity:1"
       d="m -32.545833,420.09066 -0.007,10.10768 17.2479,10.11026 0.17219,-10.00444 z"
       id="path10-5"
       sodipodi:nodetypes="ccccc" />
    <path
       style="fill:#f9f9f9;fill-opacity:1;stroke:#000000;stroke-width:0.264583px;stroke-linecap:butt;stroke-linejoin:miter;stroke-opacity:1"
       d="m 515.18267,357.67764 8.79791,-5.07948 17.36126,10.02353 8.60631,-4.96885 -17.24626,-9.95713 8.64283,-4.98994 43.32958,25.01635 -8.92959,5.1555 -17.27137,-9.97163 -17.32917,10.005 z"
       id="path1-3-0-7" />
    <path
       style="fill:#cccccc;stroke:none;stroke-width:0.264583px;stroke-linecap:butt;stroke-linejoin:miter;stroke-opacity:1"
       d="m 541.32196,342.86289 0.11514,9.77581 8.64061,4.92413 0.11514,9.95663 8.26947,-4.76816 17.29114,9.92973 8.62396,-4.9558 z"
       id="path9-0-4"
       sodipodi:nodetypes="cccccccc" />
    <path
       style="fill:#cccccc;stroke:none;stroke-width:0.264583px;stroke-linecap:butt;stroke-linejoin:miter;stroke-opacity:1"
       d="m 523.96094,352.58332 -0.007,10.10768 17.2479,10.11026 0.17219,-10.00444 z"
       id="path10-5-7"
       sodipodi:nodetypes="ccccc" />
    <path
       style="fill:#f2f2f2;fill-opacity:1;stroke:#000000;stroke-width:0.264583px;stroke-linecap:butt;stroke-linejoin:miter;stroke-opacity:1"
       d="m 356.93412,315.44687 8.79791,-5.07948 17.36126,10.02353 8.60631,-4.96885 -17.24626,-9.95713 8.64283,-4.98994 43.32958,25.01635 -8.92959,5.1555 -17.27137,-9.97163 -17.32917,10.005 z"
       id="path1-3-0-1" />
    <path
       style="fill:#cccccc;stroke:none;stroke-width:0.264583px;stroke-linecap:butt;stroke-linejoin:miter;stroke-opacity:1"
       d="m 383.07341,300.63212 0.11514,9.77581 8.64061,4.92413 0.11514,9.95663 8.26947,-4.76816 17.29114,9.92973 8.62396,-4.9558 z"
       id="path9-0-2"
       sodipodi:nodetypes="cccccccc" />
    <path
       style="fill:#cccccc;stroke:none;stroke-width:0.264583px;stroke-linecap:butt;stroke-linejoin:miter;stroke-opacity:1"
       d="m 365.71239,310.35255 -0.007,10.10768 17.2479,10.11026 0.17219,-10.00444 z"
       id="path10-5-8"
       sodipodi:nodetypes="ccccc" />
    <path
       style="fill:#cccccc;fill-opacity:1;stroke:none;stroke-width:0.264583px;stroke-linecap:butt;stroke-linejoin:miter;stroke-opacity:1"
       d="m -58.324133,564.45246 v 9.99319 l 25.9259,14.96832 v -9.82923 z"
       id="path11" />
    <path
       style="fill:#cccccc;fill-opacity:1;stroke:none;stroke-width:0.264583px;stroke-linecap:butt;stroke-linejoin:miter;stroke-opacity:1"
       d="m -49.141033,549.44275 v 9.92727 l 25.86906,14.97289 v 9.91903 l 17.1762902,-9.94155 z"
       id="path12" />
    <path
       style="fill:#f9f9f9;fill-opacity:1;stroke:#000000;stroke-width:0.264583px;stroke-linecap:butt;stroke-linejoin:miter;stroke-opacity:1"
       d="m 550.41535,337.22742 26.24147,-15.15052 43.19558,24.93898 -26.20138,15.12736 z"
       id="path2-6-9" />
    <path
       style="fill:#f6f6f6;fill-opacity:1;stroke:#000000;stroke-width:0.264583px;stroke-linecap:butt;stroke-linejoin:miter;stroke-opacity:1"
       d="m 567.59076,337.22742 8.9354,-5.15885 25.9667,14.99188 -9.0087,5.20118 z"
       id="path3-1-0" />
    <path
       style="fill:#cccccc;fill-opacity:1;stroke:none;stroke-width:0.264583px;stroke-linecap:butt;stroke-linejoin:miter;stroke-opacity:1"
       d="m 567.32827,337.28097 0.0996,9.56794 26.22444,15.16668 -0.0888,-9.53891 z"
       id="path11-8"
       sodipodi:nodetypes="ccccc" />
    <path
       style="fill:#cccccc;fill-opacity:1;stroke:none;stroke-width:0.264583px;stroke-linecap:butt;stroke-linejoin:miter;stroke-opacity:1"
       d="m 576.67886,322.2885 -0.0136,9.63736 c 8.71508,5.05572 17.44058,10.35845 26.08618,15.14073 l 0.10856,9.59098 16.63351,-9.65164 c -13.95841,-8.0728 -27.98843,-16.17579 -42.81465,-24.71743 z"
       id="path12-0"
       sodipodi:nodetypes="cccccc" />
    <path
       style="fill:#ffffff;fill-opacity:1;stroke:#000000;stroke-width:0.264583px;stroke-linecap:butt;stroke-linejoin:miter;stroke-opacity:1"
       d="m 183.89986,349.03314 26.24147,-15.15052 43.19558,24.93898 -26.20138,15.12736 z"
       id="path2-6-9-8" />
    <path
       style="fill:#ffffff;fill-opacity:1;stroke:#000000;stroke-width:0.264583px;stroke-linecap:butt;stroke-linejoin:miter;stroke-opacity:1"
       d="m 201.19041,348.92524 8.9354,-5.15885 25.9667,14.99188 -9.0087,5.20118 z"
       id="path3-1-0-1" />
    <path
       style="fill:#cccccc;fill-opacity:1;stroke:none;stroke-width:0.264583px;stroke-linecap:butt;stroke-linejoin:miter;stroke-opacity:1"
       d="m 200.89885,349.10023 v 9.68802 c 8.99563,4.95892 17.61781,10.06281 26.23801,15.02173 l -0.0407,-9.51644 z"
       id="path11-8-4"
       sodipodi:nodetypes="ccccc" />
    <path
       style="fill:#cccccc;fill-opacity:1;stroke:none;stroke-width:0.264583px;stroke-linecap:butt;stroke-linejoin:miter;stroke-opacity:1"
       d="m 210.11264,334.01702 -0.0714,9.72982 c 8.67782,5.05093 18.1612,10.52024 26.21393,15.1056 l -0.0384,9.69516 16.83087,-9.73925 z"
       id="path12-0-3"
       sodipodi:nodetypes="cccccc" />
    <path
       style="fill:#ffffff;fill-opacity:1;stroke:#000000;stroke-width:0.264583px;stroke-linecap:butt;stroke-linejoin:miter;stroke-opacity:1"
       d="m 218.7555,329.04118 26.24147,-15.15052 43.19558,24.93898 -26.20138,15.12736 z"
       id="path2-6-9-8-5" />
    <path
       style="fill:#ffffff;fill-opacity:1;stroke:#000000;stroke-width:0.264583px;stroke-linecap:butt;stroke-linejoin:miter;stroke-opacity:1"
       d="m 235.85415,328.93328 8.9354,-5.15885 25.9667,14.99188 -9.0087,5.20119 z"
       id="path3-1-0-1-0" />
    <path
       style="fill:#cccccc;fill-opacity:1;stroke:none;stroke-width:0.264583px;stroke-linecap:butt;stroke-linejoin:miter;stroke-opacity:1"
       d="m 235.67773,329.00038 v 9.68801 c 8.99563,4.95893 17.61781,10.06282 26.23801,15.02174 l -0.0407,-9.51644 z"
       id="path11-8-4-4"
       sodipodi:nodetypes="ccccc" />
    <path
       style="fill:#cccccc;fill-opacity:1;stroke:none;stroke-width:0.264583px;stroke-linecap:butt;stroke-linejoin:miter;stroke-opacity:1"
       d="m 244.89153,313.91716 -0.0714,9.72983 c 8.67781,5.05093 18.1612,10.52024 26.21392,15.1056 l -0.0384,9.69516 16.83087,-9.73926 z"
       id="path12-0-3-4"
       sodipodi:nodetypes="cccccc" />
    <path
       style="fill:#cccccc;stroke:none;stroke-width:0.264583px;stroke-linecap:butt;stroke-linejoin:miter;stroke-opacity:1"
       d="m -6.3279928,545.04646 0.35281,9.56711 -0.84133,0.47302 0.24426,9.79599 -17.1522002,-9.79599 z"
       id="path16" />
    <path
       style="fill:#cccccc;stroke:none;stroke-width:0.264583px;stroke-linecap:butt;stroke-linejoin:miter;stroke-opacity:1"
       d="m 2.0038472,560.12191 0.1357,9.82651 16.4194398,-9.49082 0.81418,-10.1622 z"
       id="path17" />
    <path
       style="fill:#cccccc;stroke:none;stroke-width:0.264583px;stroke-linecap:butt;stroke-linejoin:miter;stroke-opacity:1"
       d="m -15.372103,530.1193 0.32567,10.05539 -17.46036,9.87753 -8.84749,-5.09636 z"
       id="path18" />
    <path
       style="fill:#f6f6f6;fill-opacity:1;stroke:#000000;stroke-width:0.264583px;stroke-linecap:butt;stroke-linejoin:miter;stroke-opacity:1"
       d="m 20.454751,176.72487 8.79791,-5.07948 17.36126,10.02353 8.60631,-4.96885 -17.24626,-9.95713 8.64283,-4.98994 43.32958,25.01635 -8.92959,5.1555 -17.27137,-9.97163 -17.32917,10.005 z"
       id="path1-3-8" />
    <path
       style="fill:#f6f6f6;fill-opacity:1;stroke:#000000;stroke-width:0.264583px;stroke-linecap:butt;stroke-linejoin:miter;stroke-opacity:1"
       d="m 55.210311,156.79868 26.24147,-15.15052 43.195569,24.93898 -26.201369,15.12736 z"
       id="path2-6-6" />
    <path
       style="fill:#f6f6f6;fill-opacity:1;stroke:#000000;stroke-width:0.264583px;stroke-linecap:butt;stroke-linejoin:miter;stroke-opacity:1"
       d="m 72.385721,156.79868 8.9354,-5.15885 25.966699,14.99188 -9.008699,5.20118 z"
       id="path3-1-9" />
    <path
       style="fill:#cccccc;stroke:none;stroke-width:0.264583px;stroke-linecap:butt;stroke-linejoin:miter;stroke-opacity:1"
       d="m 46.459801,161.64123 v 9.93451 l 8.86094,5.11587 v 9.8445 l 8.32262,-4.80507 17.31615,9.99748 8.68947,-5.01687 z"
       id="path9-07" />
    <path
       style="fill:#cccccc;stroke:none;stroke-width:0.264583px;stroke-linecap:butt;stroke-linejoin:miter;stroke-opacity:1"
       d="m 29.088701,171.53979 v 10.19093 l 17.26278,9.96668 v -9.98133 z"
       id="path10-9" />
    <path
       style="fill:#cccccc;fill-opacity:1;stroke:none;stroke-width:0.264583px;stroke-linecap:butt;stroke-linejoin:miter;stroke-opacity:1"
       d="m 72.385711,156.72452 v 9.99319 l 25.9259,14.96832 v -9.82923 z"
       id="path11-5" />
    <path
       style="fill:#cccccc;fill-opacity:1;stroke:none;stroke-width:0.264583px;stroke-linecap:butt;stroke-linejoin:miter;stroke-opacity:1"
       d="m 81.568811,141.71481 v 9.92727 l 25.869059,14.97289 v 9.91903 l 17.17629,-9.94155 z"
       id="path12-08" />
    <path
       style="fill:#f9f9f9;fill-opacity:1;stroke:#000000;stroke-width:0.264583px;stroke-linecap:butt;stroke-linejoin:miter;stroke-opacity:1"
       d="m 20.333627,390.3666 -26.1024998,15.07028 8.92107,5.15059 17.5960498,-10.15909 8.52568,4.92231 -17.46709,10.08463 26.01345,15.01887 26.01855,-15.02182 -8.68534,-5.01448 -17.50211,10.10485 -8.69465,-5.01986 17.51955,-10.11491 z"
       id="path6-9-6" />
    <path
       style="fill:#cccccc;stroke:none;stroke-width:0.264583px;stroke-linecap:butt;stroke-linejoin:miter;stroke-opacity:1"
       d="m 29.546547,405.35934 0.18998,9.53278 -1.01435,0.60463 0.10178,9.66057 -16.85367,-9.7197 z"
       id="path16-2"
       sodipodi:nodetypes="cccccc" />
    <path
       style="fill:#cccccc;stroke:none;stroke-width:0.264583px;stroke-linecap:butt;stroke-linejoin:miter;stroke-opacity:1"
       d="m 37.671447,420.64841 0.13565,9.63578 17.34219,-10.04013 -0.0814,-9.59763 z"
       id="path17-4"
       sodipodi:nodetypes="ccccc" />
    <path
       style="fill:#cccccc;stroke:none;stroke-width:0.264583px;stroke-linecap:butt;stroke-linejoin:miter;stroke-opacity:1"
       d="m 20.343277,390.51556 c 0.0992,3.18535 -0.16379,-6.54701 0.37947,9.78271 l -17.5754998,10.1889 -8.68466,-5.0811 z"
       id="path18-5"
       sodipodi:nodetypes="ccccc" />
    <path
       style="fill:#cccccc;stroke:none;stroke-width:0.264583px;stroke-linecap:butt;stroke-linejoin:miter;stroke-opacity:1"
       d="m 45.419147,385.15716 0.0678,9.52249 9.09631,5.15546 9.17524,-5.36686 -0.17649,-9.36755 -9.09396,5.24291 z"
       id="path19"
       sodipodi:nodetypes="ccccccc" />
    <path
       style="fill:#cccccc;fill-opacity:1;stroke:none;stroke-width:0.264583px;stroke-linecap:butt;stroke-linejoin:miter;stroke-opacity:1"
       d="m 81.181177,394.94638 0.14288,9.57784 -9.2949,5.37919 -8.44041,-4.83697 z"
       id="path20"
       sodipodi:nodetypes="ccccc" />
    <path
       style="fill:#f2f2f2;stroke:#000000;stroke-width:0.264583px;stroke-linecap:butt;stroke-linejoin:miter;stroke-opacity:1"
       d="m 409.29659,284.74544 26.12498,-15.08324 43.50551,25.1179 -26.12706,15.08447 -8.63185,-4.9836 17.51926,-10.11475 -8.83707,-5.10209 -17.52326,10.11706 z"
       id="path7-1" />
    <path
       style="fill:#f9f9f9;stroke:#000000;stroke-width:0.264583px;stroke-linecap:butt;stroke-linejoin:miter;stroke-opacity:1"
       d="m 426.45327,284.95363 8.84184,-5.10484 8.78382,5.07135 -8.82134,5.093 z"
       id="path8-0" />
    <path
       style="fill:#cccccc;stroke:none;stroke-width:0.264583px;stroke-linecap:butt;stroke-linejoin:miter;stroke-opacity:1"
       d="m 426.19278,284.97387 0.0678,9.52249 9.09631,5.15546 9.17524,-5.36686 -0.17649,-9.36755 -9.09396,5.24291 z"
       id="path19-9"
       sodipodi:nodetypes="ccccccc" />
    <path
       style="fill:#cccccc;fill-opacity:1;stroke:none;stroke-width:0.264583px;stroke-linecap:butt;stroke-linejoin:miter;stroke-opacity:1"
       d="m 461.95481,294.76309 0.14288,9.57784 -9.2949,5.37919 -8.44041,-4.83697 z"
       id="path20-1"
       sodipodi:nodetypes="ccccc" />
    <path
       style="fill:#f2f2f2;stroke:#000000;stroke-width:0.264583px;stroke-linecap:butt;stroke-linejoin:miter;stroke-opacity:1"
       d="m 391.81007,294.94249 43.63136,25.19058 8.75199,-5.05297 -43.64696,-25.19958 z"
       id="path21" />
    <path
       style="fill:#cccccc;stroke:none;stroke-width:0.264583px;stroke-linecap:butt;stroke-linejoin:miter;stroke-opacity:1"
       d="m 400.52187,289.99109 0.0271,9.76547 c 17.154,9.89492 23.02232,13.36497 34.87502,20.22502 l 8.46267,-4.9224 c -13.69007,-7.86035 -28.534,-16.49334 -43.36479,-25.06809 z"
       id="path22"
       sodipodi:nodetypes="ccccc" />
    <path
       style="fill:#f9f9f9;stroke:#000000;stroke-width:0.264583px;stroke-linecap:butt;stroke-linejoin:miter;stroke-opacity:1"
       d="m 585.15478,317.07188 43.63136,25.19058 8.75199,-5.05297 -43.64696,-25.19958 z"
       id="path21-2" />
    <path
       style="fill:#cccccc;stroke:none;stroke-width:0.264583px;stroke-linecap:butt;stroke-linejoin:miter;stroke-opacity:1"
       d="m 593.86658,312.12048 0.13566,9.84176 c 17.154,9.89492 22.91376,13.28868 34.76646,20.14873 l 8.46267,-4.9224 c -13.69007,-7.86035 -28.534,-16.49334 -43.36479,-25.06809 z"
       id="path22-7"
       sodipodi:nodetypes="ccccc" />
    <path
       style="fill:#cccccc;fill-opacity:1;stroke:none;stroke-width:0.264583px;stroke-linecap:butt;stroke-linejoin:miter;stroke-opacity:1"
       d="m 166.10145,369.81456 0.0288,9.8379 8.78107,5.13872 17.71198,-10.21933 0.0335,-9.66985 -17.54805,10.04205 z"
       id="path31"
       sodipodi:nodetypes="ccccccc" />
    <path
       style="fill:#cccccc;fill-opacity:1;stroke:none;stroke-width:0.264583px;stroke-linecap:butt;stroke-linejoin:miter;stroke-opacity:1"
       d="m 175.59225,354.88091 -0.006,9.39972 8.13199,-4.7135 z"
       id="path32"
       sodipodi:nodetypes="cccc" />
    <path
       style="fill:#cccccc;fill-opacity:1;stroke:none;stroke-width:0.264583px;stroke-linecap:butt;stroke-linejoin:miter;stroke-opacity:1"
       d="m 201.55683,379.70667 -0.0162,9.80352 -8.77102,5.06185 -8.61147,-4.97537 z"
       id="path33"
       sodipodi:nodetypes="ccccc" />
    <path
       style="fill:none;stroke:#000000;stroke-width:0.264583px;stroke-linecap:butt;stroke-linejoin:miter;stroke-opacity:1"
       d="m 245.89827,544.23923 -25.77979,14.88397 -8.70807,-5.0276 17.25328,-9.96119 -8.66992,-5.00558 -17.64931,10.18983 -25.74558,-14.86422 26.47715,-15.2866 8.34128,4.81585 -17.67469,10.20449 8.79757,5.07928 17.5846,-10.15247 z"
       id="path4-1-1" />
    <path
       style="fill:#ffffff;fill-opacity:1;stroke:#000000;stroke-width:0.264583px;stroke-linecap:butt;stroke-linejoin:miter;stroke-opacity:1"
       d="m 211.32175,513.46665 26.24147,-15.15052 43.19558,24.93898 -26.20138,15.12737 z"
       id="path2-6-9-8-58" />
    <path
       style="fill:#ffffff;fill-opacity:1;stroke:#000000;stroke-width:0.264583px;stroke-linecap:butt;stroke-linejoin:miter;stroke-opacity:1"
       d="m 228.6123,513.35876 8.9354,-5.15885 25.9667,14.99188 -9.0087,5.20118 z"
       id="path3-1-0-1-5" />
    <path
       style="fill:#cccccc;fill-opacity:1;stroke:none;stroke-width:0.264583px;stroke-linecap:butt;stroke-linejoin:miter;stroke-opacity:1"
       d="m 228.32074,513.53375 v 9.68801 c 8.99563,4.95893 17.61781,10.06282 26.23801,15.02174 l -0.0407,-9.51644 z"
       id="path11-8-4-9"
       sodipodi:nodetypes="ccccc" />
    <path
       style="fill:#cccccc;fill-opacity:1;stroke:none;stroke-width:0.264583px;stroke-linecap:butt;stroke-linejoin:miter;stroke-opacity:1"
       d="m 237.53453,498.45053 -0.0714,9.72983 c 8.67782,5.05093 18.1612,10.52024 26.21393,15.1056 l -0.0384,9.69516 16.83087,-9.73926 z"
       id="path12-0-3-9"
       sodipodi:nodetypes="cccccc" />
    <path
       style="fill:#cccccc;fill-opacity:1;stroke:none;stroke-width:0.264583px;stroke-linecap:butt;stroke-linejoin:miter;stroke-opacity:1"
       d="m 193.52334,534.24808 0.0288,9.8379 8.78107,5.13872 17.71198,-10.21933 0.0336,-9.66985 -17.54806,10.04205 z"
       id="path31-3"
       sodipodi:nodetypes="ccccccc" />
    <path
       style="fill:#cccccc;fill-opacity:1;stroke:none;stroke-width:0.264583px;stroke-linecap:butt;stroke-linejoin:miter;stroke-opacity:1"
       d="m 203.01414,519.31442 -0.006,9.39973 8.13199,-4.7135 z"
       id="path32-7"
       sodipodi:nodetypes="cccc" />
    <path
       style="fill:#cccccc;fill-opacity:1;stroke:none;stroke-width:0.264583px;stroke-linecap:butt;stroke-linejoin:miter;stroke-opacity:1"
       d="m 228.97872,544.14019 -0.0162,9.80352 -8.77102,5.06185 -8.61147,-4.97537 z"
       id="path33-5"
       sodipodi:nodetypes="ccccc" />
    <path
       style="fill:#f9f9f9;fill-opacity:1;stroke:#000000;stroke-width:0.264583px;stroke-linecap:butt;stroke-linejoin:miter;stroke-opacity:1"
       d="m 273.5451,478.07526 -26.1025,15.07028 8.92107,5.15059 17.59605,-10.15909 8.52568,4.92231 -17.46709,10.08463 26.01345,15.01887 26.01855,-15.02182 -8.68534,-5.01448 -17.50211,10.10485 -8.69465,-5.01986 17.51955,-10.11491 z"
       id="path6-9-6-8" />
    <path
       style="fill:#cccccc;stroke:none;stroke-width:0.264583px;stroke-linecap:butt;stroke-linejoin:miter;stroke-opacity:1"
       d="m 282.75802,493.068 0.18998,9.53278 -1.01435,0.60463 0.10178,9.66057 -16.85367,-9.7197 z"
       id="path16-2-6"
       sodipodi:nodetypes="cccccc" />
    <path
       style="fill:#cccccc;stroke:none;stroke-width:0.264583px;stroke-linecap:butt;stroke-linejoin:miter;stroke-opacity:1"
       d="m 290.88292,508.35707 0.13565,9.63578 17.34219,-10.04013 -0.0814,-9.59763 z"
       id="path17-4-1"
       sodipodi:nodetypes="ccccc" />
    <path
       style="fill:#cccccc;stroke:none;stroke-width:0.264583px;stroke-linecap:butt;stroke-linejoin:miter;stroke-opacity:1"
       d="m 273.55475,478.22422 c 0.0992,3.18535 -0.16379,-6.54701 0.37947,9.78271 l -17.5755,10.1889 -8.68466,-5.0811 z"
       id="path18-5-0"
       sodipodi:nodetypes="ccccc" />
    <path
       style="fill:#ececec;stroke:#000000;stroke-width:0.264583px;stroke-linecap:butt;stroke-linejoin:miter;stroke-opacity:1"
       d="m 159.86373,146.12896 -25.77979,14.88397 -8.70807,-5.0276 17.25328,-9.96119 -8.66992,-5.00558 -17.64931,10.18983 -25.745569,-14.86422 26.477139,-15.28659 8.34128,4.81584 -17.67468,10.20449 8.79756,5.07928 17.5846,-10.15247 z"
       id="path4-1-3" />
    <path
       style="fill:#cccccc;fill-opacity:1;stroke:none;stroke-width:0.264583px;stroke-linecap:butt;stroke-linejoin:miter;stroke-opacity:1"
       d="m 107.4888,136.13781 0.0288,9.8379 8.78107,5.13872 17.71199,-10.21933 0.0335,-9.66985 -17.54806,10.04205 z"
       id="path31-7"
       sodipodi:nodetypes="ccccccc" />
    <path
       style="fill:#cccccc;fill-opacity:1;stroke:none;stroke-width:0.264583px;stroke-linecap:butt;stroke-linejoin:miter;stroke-opacity:1"
       d="m 116.9796,121.20416 -0.006,9.39972 8.13199,-4.7135 z"
       id="path32-2"
       sodipodi:nodetypes="cccc" />
    <path
       style="fill:#cccccc;fill-opacity:1;stroke:none;stroke-width:0.264583px;stroke-linecap:butt;stroke-linejoin:miter;stroke-opacity:1"
       d="m 142.94418,146.02992 -0.0162,9.80352 -8.77102,5.06185 -8.61147,-4.97537 z"
       id="path33-3"
       sodipodi:nodetypes="ccccc" />
    <path
       style="fill:#f6f6f6;fill-opacity:1;stroke:#000000;stroke-width:0.264583px;stroke-linecap:butt;stroke-linejoin:miter;stroke-opacity:1"
       d="m 131.68594,469.52981 8.79791,-5.07948 17.36126,10.02353 8.60631,-4.96885 -17.24626,-9.95713 8.64283,-4.98994 43.32958,25.01635 -8.92959,5.1555 -17.27137,-9.97163 -17.32917,10.005 z"
       id="path1-3-8-5" />
    <path
       style="fill:#f6f6f6;fill-opacity:1;stroke:#000000;stroke-width:0.264583px;stroke-linecap:butt;stroke-linejoin:miter;stroke-opacity:1"
       d="m 166.4415,449.60362 26.24147,-15.15052 43.19557,24.93898 -26.20137,15.12736 z"
       id="path2-6-6-6" />
    <path
       style="fill:#f6f6f6;fill-opacity:1;stroke:#000000;stroke-width:0.264583px;stroke-linecap:butt;stroke-linejoin:miter;stroke-opacity:1"
       d="m 183.61691,449.60362 8.9354,-5.15885 25.9667,14.99188 -9.0087,5.20118 z"
       id="path3-1-9-5" />
    <path
       style="fill:#cccccc;stroke:none;stroke-width:0.264583px;stroke-linecap:butt;stroke-linejoin:miter;stroke-opacity:1"
       d="m 157.80613,454.65117 -0.0384,9.62701 c 3.1784,1.90782 6.40667,3.81258 8.81297,5.20219 l -0.0864,10.00094 c 2.80619,-1.63406 5.83525,-3.33971 8.41857,-4.90217 l 17.23939,9.9759 c 2.56714,-1.46629 6.10961,-3.38414 8.68947,-5.01687 -13.68112,-7.73355 -28.6439,-16.59245 -43.03566,-24.887 z"
       id="path9-07-6"
       sodipodi:nodetypes="cccccccc" />
    <path
       style="fill:#cccccc;stroke:none;stroke-width:0.264583px;stroke-linecap:butt;stroke-linejoin:miter;stroke-opacity:1"
       d="m 140.31989,464.61938 0.0192,9.84708 17.24359,10.03588 v -9.84533 z"
       id="path10-9-4"
       sodipodi:nodetypes="ccccc" />
    <path
       style="fill:#cccccc;fill-opacity:1;stroke:none;stroke-width:0.264583px;stroke-linecap:butt;stroke-linejoin:miter;stroke-opacity:1"
       d="m 183.42499,449.62117 0.31665,9.78819 c 10.11456,5.75347 17.95674,10.21892 25.85873,14.91437 l -0.0447,-9.49169 c -4.94929,-3.03143 -16.48486,-9.42673 -26.13069,-15.21087 z"
       id="path11-5-0"
       sodipodi:nodetypes="ccccc" />
    <path
       style="fill:#cccccc;fill-opacity:1;stroke:none;stroke-width:0.264583px;stroke-linecap:butt;stroke-linejoin:miter;stroke-opacity:1"
       d="m 192.51214,434.63843 0.0768,9.61438 c 8.74456,4.95088 17.48912,10.0482 26.23368,15.19947 l -0.1919,9.69245 c 5.42686,-3.15212 10.92343,-6.5176 16.85004,-9.72576 -12.31914,-7.09396 -27.53149,-15.90212 -42.96858,-24.78054 z"
       id="path12-08-5"
       sodipodi:nodetypes="cccccc" />
    <path
       style="fill:#f2f2f2;stroke:#000000;stroke-width:0.264583px;stroke-linecap:butt;stroke-linejoin:miter;stroke-opacity:1"
       d="m 201.00173,429.13814 25.90243,-14.95477 43.18321,24.93183 -25.91376,14.96132 -8.75622,-5.0554 17.43593,-10.06664 -8.60999,-4.97098 -17.40753,10.05024 -8.70066,-5.02333 17.51019,-10.10951 -8.57145,-4.94873 -17.62131,10.17367 z"
       id="path13" />
    <path
       style="fill:#cccccc;fill-opacity:1;stroke:none;stroke-width:0.264583px;stroke-linecap:butt;stroke-linejoin:miter;stroke-opacity:1"
       d="m 235.82465,428.93408 c -0.056,3.26021 -0.18575,6.52041 -0.0768,9.78062 l -8.84788,5.25894 c -2.8565,-1.60949 -5.713,-3.27213 -8.5695,-4.95314 0,0 17.4435,-10.09999 17.49414,-10.08642 z"
       id="path14"
       sodipodi:nodetypes="ccccc" />
    <path
       style="fill:#cccccc;fill-opacity:1;stroke:none;stroke-width:0.264583px;stroke-linecap:butt;stroke-linejoin:miter;stroke-opacity:1"
       d="m 253.03909,439.00998 -0.0672,9.83997 -8.81909,5.11867 -8.48314,-4.98011 c 0.10488,-0.059 17.46808,-10.07605 17.3694,-9.97853 z"
       id="path14-8"
       sodipodi:nodetypes="ccccc" />
    <path
       style="fill:#cccccc;fill-opacity:1;stroke:none;stroke-width:0.264583px;stroke-linecap:butt;stroke-linejoin:miter;stroke-opacity:1"
       d="m 226.96555,414.31597 c 0.005,3.21645 0.0334,6.35858 0.11515,9.48897 l -17.54716,10.16746 -8.40103,-4.85033 z"
       id="path15"
       sodipodi:nodetypes="ccccc" />
  </g>
</svg>
