<?xml version="1.0" encoding="UTF-8" standalone="no"?>
<!-- Created with Inkscape (http://www.inkscape.org/) -->

<svg
   width="210mm"
   height="297mm"
   viewBox="0 0 210 297"
   version="1.1"
   id="svg1"
   inkscape:version="1.3 (0e150ed6c4, 2023-07-21)"
   sodipodi:docname="400.svg"
   inkscape:export-filename="405 method not allowed\400 (16 dpi).svg"
   inkscape:export-xdpi="16"
   inkscape:export-ydpi="16"
   xmlns:inkscape="http://www.inkscape.org/namespaces/inkscape"
   xmlns:sodipodi="http://sodipodi.sourceforge.net/DTD/sodipodi-0.dtd"
   xmlns="http://www.w3.org/2000/svg"
   xmlns:svg="http://www.w3.org/2000/svg">
  <sodipodi:namedview
     id="namedview1"
     pagecolor="#ffffff"
     bordercolor="#000000"
     borderopacity="0.25"
     inkscape:showpageshadow="2"
     inkscape:pageopacity="0.0"
     inkscape:pagecheckerboard="0"
     inkscape:deskcolor="#d1d1d1"
     inkscape:document-units="mm"
     inkscape:zoom="0.16"
     inkscape:cx="271.875"
     inkscape:cy="728.125"
     inkscape:window-width="1366"
     inkscape:window-height="705"
     inkscape:window-x="-8"
     inkscape:window-y="-8"
     inkscape:window-maximized="1"
     inkscape:current-layer="layer1"
     showgrid="true" />
  <defs
     id="defs1" />
  <g
     inkscape:label="Layer 1"
     inkscape:groupmode="layer"
     id="layer1">
    <path
       style="fill:#f6f6f6;fill-opacity:1;stroke:#000000;stroke-width:0.264583px;stroke-linecap:butt;stroke-linejoin:miter;stroke-opacity:1"
       d="m 37.188928,142.63028 8.79791,-5.07948 17.36126,10.02353 8.60631,-4.96885 -17.24626,-9.95713 8.64283,-4.98994 43.329582,25.01635 -8.929592,5.1555 -17.27137,-9.97163 -17.32917,10.005 z"
       id="path1-3-8" />
    <path
       style="fill:#f6f6f6;fill-opacity:1;stroke:#000000;stroke-width:0.264583px;stroke-linecap:butt;stroke-linejoin:miter;stroke-opacity:1"
       d="m 71.944488,122.70409 26.24147,-15.15052 43.195572,24.93898 -26.20137,15.12736 z"
       id="path2-6-6" />
    <path
       style="fill:#f6f6f6;fill-opacity:1;stroke:#000000;stroke-width:0.264583px;stroke-linecap:butt;stroke-linejoin:miter;stroke-opacity:1"
       d="m 89.119898,122.70409 8.9354,-5.15885 25.966702,14.99188 -9.0087,5.20118 z"
       id="path3-1-9" />
    <g
       id="g15"
       transform="translate(16.734177,-34.09459)">
      <path
         style="fill:#cccccc;stroke:none;stroke-width:0.264583px;stroke-linecap:butt;stroke-linejoin:miter;stroke-opacity:1"
         d="m 46.459801,161.64123 v 9.93451 l 8.86094,5.11587 v 9.8445 l 8.32262,-4.80507 17.31615,9.99748 8.68947,-5.01687 z"
         id="path9-07" />
      <path
         style="fill:#cccccc;stroke:none;stroke-width:0.264583px;stroke-linecap:butt;stroke-linejoin:miter;stroke-opacity:1"
         d="m 29.088701,171.53979 v 10.19093 l 17.26278,9.96668 v -9.98133 z"
         id="path10-9" />
    </g>
    <g
       id="g16"
       transform="translate(16.734177,-34.09459)">
      <path
         style="fill:#cccccc;fill-opacity:1;stroke:none;stroke-width:0.264583px;stroke-linecap:butt;stroke-linejoin:miter;stroke-opacity:1"
         d="m 72.385711,156.72452 v 9.99319 l 25.9259,14.96832 v -9.82923 z"
         id="path11-5" />
      <path
         style="fill:#cccccc;fill-opacity:1;stroke:none;stroke-width:0.264583px;stroke-linecap:butt;stroke-linejoin:miter;stroke-opacity:1"
         d="m 81.568811,141.71481 v 9.92727 l 25.869059,14.97289 v 9.91903 l 17.17629,-9.94155 z"
         id="path12-08" />
    </g>
    <path
       style="fill:#ececec;stroke:#000000;stroke-width:0.264583px;stroke-linecap:butt;stroke-linejoin:miter;stroke-opacity:1"
       d="m 176.59791,112.03437 -25.77979,14.88397 -8.70807,-5.0276 17.25328,-9.96119 -8.66992,-5.00558 -17.64931,10.18983 -25.74557,-14.86422 26.47714,-15.28659 8.34128,4.81584 -17.67468,10.20449 8.79756,5.07928 17.5846,-10.15247 z"
       id="path4-1-3" />
    <g
       id="g17"
       transform="translate(16.734177,-34.09459)">
      <path
         style="fill:#cccccc;fill-opacity:1;stroke:none;stroke-width:0.264583px;stroke-linecap:butt;stroke-linejoin:miter;stroke-opacity:1"
         d="m 107.4888,136.13781 0.0288,9.8379 8.78107,5.13872 17.71199,-10.21933 0.0335,-9.66985 -17.54806,10.04205 z"
         id="path31-7"
         sodipodi:nodetypes="ccccccc" />
      <path
         style="fill:#cccccc;fill-opacity:1;stroke:none;stroke-width:0.264583px;stroke-linecap:butt;stroke-linejoin:miter;stroke-opacity:1"
         d="m 116.9796,121.20416 -0.006,9.39972 8.13199,-4.7135 z"
         id="path32-2"
         sodipodi:nodetypes="cccc" />
      <path
         style="fill:#cccccc;fill-opacity:1;stroke:none;stroke-width:0.264583px;stroke-linecap:butt;stroke-linejoin:miter;stroke-opacity:1"
         d="m 142.94418,146.02992 -0.0162,9.80352 -8.77102,5.06185 -8.61147,-4.97537 z"
         id="path33-3"
         sodipodi:nodetypes="ccccc" />
    </g>
  </g>
</svg>
