<?xml version="1.0" encoding="UTF-8" standalone="no"?>
<!-- Created with Inkscape (http://www.inkscape.org/) -->

<svg
   width="496mm"
   height="364mm"
   viewBox="0 0 496 364"
   version="1.1"
   id="svg1"
   inkscape:version="1.3 (0e150ed6c4, 2023-07-21)"
   sodipodi:docname="404 ERROR (32 DPI) .svg"
   inkscape:export-filename="404 ERROR (64 DPI) .svg"
   inkscape:export-xdpi="64"
   inkscape:export-ydpi="64"
   xmlns:inkscape="http://www.inkscape.org/namespaces/inkscape"
   xmlns:sodipodi="http://sodipodi.sourceforge.net/DTD/sodipodi-0.dtd"
   xmlns="http://www.w3.org/2000/svg"
   xmlns:svg="http://www.w3.org/2000/svg">
  <sodipodi:namedview
     id="namedview1"
     pagecolor="#ffffff"
     bordercolor="#000000"
     borderopacity="0.25"
     inkscape:showpageshadow="2"
     inkscape:pageopacity="0.0"
     inkscape:pagecheckerboard="0"
     inkscape:deskcolor="#d1d1d1"
     inkscape:document-units="mm"
     showgrid="true"
     inkscape:zoom="0.22627417"
     inkscape:cx="828.64076"
     inkscape:cy="581.15339"
     inkscape:window-width="1366"
     inkscape:window-height="705"
     inkscape:window-x="-8"
     inkscape:window-y="-8"
     inkscape:window-maximized="1"
     inkscape:current-layer="layer1" />
  <defs
     id="defs1" />
  <g
     inkscape:label="Layer 1"
     inkscape:groupmode="layer"
     id="layer1">
    <path
       id="path1"
       style="fill:#e6e6e6;stroke:#000000;stroke-width:0;stroke-linecap:butt;stroke-linejoin:miter;stroke-dasharray:none;stroke-opacity:1"
       d="m 209.90099,107.96361 -70.348,40.76576 117.96817,68.54418 71.0695,-41.12651 z m 0.72151,27.41768 71.43026,40.76575 -24.5316,14.0696 -70.34798,-41.48727 z" />
    <path
       style="fill:#e6e6e6;fill-opacity:1;stroke:#000000;stroke-width:0;stroke-linecap:butt;stroke-linejoin:miter;stroke-dasharray:none;stroke-opacity:1"
       d="m 91.697096,175.92769 23.723834,-14.03023 117.85393,68.87567 -23.72384,13.77513 -46.93749,-28.06046 -47.1926,28.06046 -71.04397,-41.45295 23.851391,-13.64758 47.320129,27.29516 23.72385,-13.90267 z"
       id="path4" />
    <g
       id="g22"
       style="fill:#999999;stroke-width:0.733408"
       transform="matrix(1.3634982,0,0,1.3634982,20.27048,24.305568)">
      <path
         style="fill:#999999;stroke:#000000;stroke-width:0;stroke-linecap:butt;stroke-linejoin:miter;stroke-dasharray:none;stroke-opacity:1"
         d="m 69.784066,101.09804 0.18709,20.01849 17.21216,9.91569 v 20.01849 l 17.025074,-10.28987 34.6114,20.57975 17.39925,-9.9157 z"
         id="path5" />
      <path
         style="fill:#999999;stroke:#000000;stroke-width:0;stroke-linecap:butt;stroke-linejoin:miter;stroke-dasharray:none;stroke-opacity:1"
         d="m 35.172669,121.11653 -0.09354,20.01848 34.798487,20.29912 -0.0935,-20.48621 z"
         id="path6" />
    </g>
    <path
       style="fill:#e6e6e6;fill-opacity:1;stroke:#000000;stroke-width:0;stroke-linecap:butt;stroke-linejoin:miter;stroke-dasharray:none;stroke-opacity:1"
       d="m 281.48212,65.58956 23.72383,-14.030234 117.85393,68.875664 -23.72385,13.77514 -46.93748,-28.06047 -47.1926,28.06047 -71.04397,-41.45295 23.85139,-13.647581 47.32014,27.295161 23.72384,-13.902677 z"
       id="path4-97" />
    <g
       id="g21"
       style="fill:#999999;stroke-width:0.733408"
       transform="matrix(1.3634982,0,0,1.3634982,20.27048,24.305568)">
      <path
         style="fill:#999999;stroke:#000000;stroke-width:0;stroke-linecap:butt;stroke-linejoin:miter;stroke-dasharray:none;stroke-opacity:1"
         d="m 208.97385,20.175204 0.18709,20.018492 17.21216,9.91569 v 20.01849 l 17.02507,-10.28987 34.6114,20.57975 17.39925,-9.9157 z"
         id="path5-9" />
      <path
         style="fill:#999999;stroke:#000000;stroke-width:0;stroke-linecap:butt;stroke-linejoin:miter;stroke-dasharray:none;stroke-opacity:1"
         d="m 174.36245,40.193696 -0.0935,20.01848 34.79849,20.29912 -0.0935,-20.48621 z"
         id="path6-6" />
    </g>
    <g
       id="g23"
       style="fill:#999999;stroke-width:0.733408"
       transform="matrix(1.3634982,0,0,1.3634982,20.27048,24.305568)">
      <path
         style="fill:#999999;stroke:#000000;stroke-width:0;stroke-linecap:butt;stroke-linejoin:miter;stroke-dasharray:none;stroke-opacity:1"
         d="m 139.19397,61.62233 v 19.831399 l 52.70717,29.931741 -0.33073,19.84375 34.39583,-19.97604 z"
         id="path7" />
      <path
         style="fill:#999999;stroke:#000000;stroke-width:0;stroke-linecap:butt;stroke-linejoin:miter;stroke-dasharray:none;stroke-opacity:1"
         d="m 122.44953,91.229112 0.14032,20.392668 51.41884,29.92619 -0.0331,-19.7776 z"
         id="path8" />
    </g>
  </g>
</svg>
