<?xml version="1.0" encoding="UTF-8" standalone="no"?>
<!-- Created with Inkscape (http://www.inkscape.org/) -->

<svg
   width="210mm"
   height="297mm"
   viewBox="0 0 210 297"
   version="1.1"
   id="svg1"
   inkscape:version="1.3 (0e150ed6c4, 2023-07-21)"
   sodipodi:docname="400.svg"
   inkscape:export-filename="419 -\419  (64).svg"
   inkscape:export-xdpi="64"
   inkscape:export-ydpi="64"
   xmlns:inkscape="http://www.inkscape.org/namespaces/inkscape"
   xmlns:sodipodi="http://sodipodi.sourceforge.net/DTD/sodipodi-0.dtd"
   xmlns="http://www.w3.org/2000/svg"
   xmlns:svg="http://www.w3.org/2000/svg">
  <sodipodi:namedview
     id="namedview1"
     pagecolor="#ffffff"
     bordercolor="#000000"
     borderopacity="0.25"
     inkscape:showpageshadow="2"
     inkscape:pageopacity="0.0"
     inkscape:pagecheckerboard="0"
     inkscape:deskcolor="#d1d1d1"
     inkscape:document-units="mm"
     inkscape:zoom="0.16"
     inkscape:cx="271.875"
     inkscape:cy="728.125"
     inkscape:window-width="1366"
     inkscape:window-height="705"
     inkscape:window-x="-8"
     inkscape:window-y="-8"
     inkscape:window-maximized="1"
     inkscape:current-layer="layer1"
     showgrid="true" />
  <defs
     id="defs1" />
  <g
     inkscape:label="Layer 1"
     inkscape:groupmode="layer"
     id="layer1">
    <path
       style="fill:#f2f2f2;fill-opacity:1;stroke:#000000;stroke-width:0.264583px;stroke-linecap:butt;stroke-linejoin:miter;stroke-opacity:1"
       d="m 5.2414827,168.66919 14.3042663,-8.26904 28.227166,16.31762 13.992749,-8.08895 -28.04019,-16.20952 14.052124,-8.12329 70.448302,40.72491 -14.51835,8.3928 -28.081028,-16.23314 -28.174993,16.28746 z"
       id="path1-3-0-1" />
    <g
       id="g27"
       transform="matrix(1.625871,0,0,1.6279316,-575.08735,-344.85674)"
       style="stroke-width:0.614666">
      <path
         style="fill:#cccccc;stroke:none;stroke-width:0.16263px;stroke-linecap:butt;stroke-linejoin:miter;stroke-opacity:1"
         d="m 383.07341,300.63212 0.11514,9.77581 8.64061,4.92413 0.11514,9.95663 8.26947,-4.76816 17.29114,9.92973 8.62396,-4.9558 z"
         id="path9-0-2"
         sodipodi:nodetypes="cccccccc" />
      <path
         style="fill:#cccccc;stroke:none;stroke-width:0.16263px;stroke-linecap:butt;stroke-linejoin:miter;stroke-opacity:1"
         d="m 365.71239,310.35255 -0.007,10.10768 17.2479,10.11026 0.17219,-10.00444 z"
         id="path10-5-8"
         sodipodi:nodetypes="ccccc" />
    </g>
    <path
       style="fill:#f2f2f2;stroke:#000000;stroke-width:0.264583px;stroke-linecap:butt;stroke-linejoin:miter;stroke-opacity:1"
       d="m 90.376101,118.68937 42.475839,-24.554499 70.73434,40.890239 -42.47922,24.55648 -14.03428,-8.11295 28.48406,-16.46613 -14.36794,-8.30585 -28.49056,16.46987 z"
       id="path7-1" />
    <path
       style="fill:#f9f9f9;stroke:#000000;stroke-width:0.264583px;stroke-linecap:butt;stroke-linejoin:miter;stroke-opacity:1"
       d="m 118.27064,119.02829 14.3757,-8.31034 14.28135,8.25582 -14.34235,8.29105 z"
       id="path8-0" />
    <g
       id="g26"
       transform="matrix(1.625871,0,0,1.6279316,-575.08735,-344.85674)"
       style="stroke-width:0.614666">
      <path
         style="fill:#cccccc;stroke:none;stroke-width:0.16263px;stroke-linecap:butt;stroke-linejoin:miter;stroke-opacity:1"
         d="m 426.19278,284.97387 0.0678,9.52249 9.09631,5.15546 9.17524,-5.36686 -0.17649,-9.36755 -9.09396,5.24291 z"
         id="path19-9"
         sodipodi:nodetypes="ccccccc" />
      <path
         style="fill:#cccccc;fill-opacity:1;stroke:none;stroke-width:0.16263px;stroke-linecap:butt;stroke-linejoin:miter;stroke-opacity:1"
         d="m 461.95481,294.76309 0.14288,9.57784 -9.2949,5.37919 -8.44041,-4.83697 z"
         id="path20-1"
         sodipodi:nodetypes="ccccc" />
    </g>
    <path
       style="fill:#f2f2f2;stroke:#000000;stroke-width:0.264583px;stroke-linecap:butt;stroke-linejoin:miter;stroke-opacity:1"
       d="m 61.945274,135.28947 70.938956,41.00853 14.22961,-8.22588 -70.964324,-41.0232 z"
       id="path21" />
    <path
       style="fill:#cccccc;stroke:none;stroke-width:0.264583px;stroke-linecap:butt;stroke-linejoin:miter;stroke-opacity:1"
       d="m 76.109537,127.22893 0.04406,15.89751 c 27.890193,16.10825 37.431323,21.75725 56.702283,32.92495 l 13.7592,-8.01333 c -22.25829,-12.79612 -46.3926,-26.85003 -70.505541,-40.80913 z"
       id="path22"
       sodipodi:nodetypes="ccccc" />
  </g>
</svg>
