<?xml version="1.0" encoding="UTF-8" standalone="no"?>
<!-- Created with Inkscape (http://www.inkscape.org/) -->

<svg
   width="210mm"
   height="297mm"
   viewBox="0 0 210 297"
   version="1.1"
   id="svg1"
   inkscape:version="1.3 (0e150ed6c4, 2023-07-21)"
   sodipodi:docname="400.svg"
   inkscape:export-filename="429 to many requests\429  (16).svg"
   inkscape:export-xdpi="16"
   inkscape:export-ydpi="16"
   xmlns:inkscape="http://www.inkscape.org/namespaces/inkscape"
   xmlns:sodipodi="http://sodipodi.sourceforge.net/DTD/sodipodi-0.dtd"
   xmlns="http://www.w3.org/2000/svg"
   xmlns:svg="http://www.w3.org/2000/svg">
  <sodipodi:namedview
     id="namedview1"
     pagecolor="#ffffff"
     bordercolor="#000000"
     borderopacity="0.25"
     inkscape:showpageshadow="2"
     inkscape:pageopacity="0.0"
     inkscape:pagecheckerboard="0"
     inkscape:deskcolor="#d1d1d1"
     inkscape:document-units="mm"
     inkscape:zoom="0.16"
     inkscape:cx="271.875"
     inkscape:cy="728.125"
     inkscape:window-width="1366"
     inkscape:window-height="705"
     inkscape:window-x="-8"
     inkscape:window-y="-8"
     inkscape:window-maximized="1"
     inkscape:current-layer="layer1"
     showgrid="true" />
  <defs
     id="defs1" />
  <g
     inkscape:label="Layer 1"
     inkscape:groupmode="layer"
     id="layer1">
    <path
       style="fill:#f9f9f9;stroke:#000000;stroke-width:0.264583px;stroke-linecap:butt;stroke-linejoin:miter;stroke-opacity:1"
       d="m 104.63943,177.38906 -34.776961,20.08941 -11.747197,-6.78593 23.274696,-13.44496 -11.695733,-6.7562 -23.80894,13.75356 -34.730818,-20.06274 35.717707,-20.63285 11.252396,6.50012 -23.843178,13.77335 11.867933,6.85567 23.721646,-13.70313 z"
       id="path4-1-1" />
    <path
       style="fill:#ffffff;fill-opacity:1;stroke:#000000;stroke-width:0.264583px;stroke-linecap:butt;stroke-linejoin:miter;stroke-opacity:1"
       d="m 57.99567,135.85426 35.399774,-20.44918 58.270886,33.661 -35.34569,20.41793 z"
       id="path2-6-9-8-58" />
    <path
       style="fill:#ffffff;fill-opacity:1;stroke:#000000;stroke-width:0.264583px;stroke-linecap:butt;stroke-linejoin:miter;stroke-opacity:1"
       d="m 81.320643,135.70864 12.053865,-6.96308 35.029102,20.23505 -12.15275,7.02021 z"
       id="path3-1-0-1-5" />
    <g
       id="g24"
       transform="matrix(1.3490012,0,0,1.3497342,-227.07763,-557.18926)"
       style="stroke-width:0.741088">
      <path
         style="fill:#cccccc;fill-opacity:1;stroke:none;stroke-width:0.196079px;stroke-linecap:butt;stroke-linejoin:miter;stroke-opacity:1"
         d="m 228.32074,513.53375 v 9.68801 c 8.99563,4.95893 17.61781,10.06282 26.23801,15.02174 l -0.0407,-9.51644 z"
         id="path11-8-4-9"
         sodipodi:nodetypes="ccccc" />
      <path
         style="fill:#cccccc;fill-opacity:1;stroke:none;stroke-width:0.196079px;stroke-linecap:butt;stroke-linejoin:miter;stroke-opacity:1"
         d="m 237.53453,498.45053 -0.0714,9.72983 c 8.67782,5.05093 18.1612,10.52024 26.21393,15.1056 l -0.0384,9.69516 16.83087,-9.73926 z"
         id="path12-0-3-9"
         sodipodi:nodetypes="cccccc" />
    </g>
    <g
       id="g23"
       transform="matrix(1.3490012,0,0,1.3497342,-227.07763,-557.18926)"
       style="stroke-width:0.741088">
      <path
         style="fill:#cccccc;fill-opacity:1;stroke:none;stroke-width:0.196079px;stroke-linecap:butt;stroke-linejoin:miter;stroke-opacity:1"
         d="m 193.52334,534.24808 0.0288,9.8379 8.78107,5.13872 17.71198,-10.21933 0.0336,-9.66985 -17.54806,10.04205 z"
         id="path31-3"
         sodipodi:nodetypes="ccccccc" />
      <path
         style="fill:#cccccc;fill-opacity:1;stroke:none;stroke-width:0.196079px;stroke-linecap:butt;stroke-linejoin:miter;stroke-opacity:1"
         d="m 203.01414,519.31442 -0.006,9.39973 8.13199,-4.7135 z"
         id="path32-7"
         sodipodi:nodetypes="cccc" />
      <path
         style="fill:#cccccc;fill-opacity:1;stroke:none;stroke-width:0.196079px;stroke-linecap:butt;stroke-linejoin:miter;stroke-opacity:1"
         d="m 228.97872,544.14019 -0.0162,9.80352 -8.77102,5.06185 -8.61147,-4.97537 z"
         id="path33-5"
         sodipodi:nodetypes="ccccc" />
    </g>
    <path
       style="fill:#f9f9f9;fill-opacity:1;stroke:#000000;stroke-width:0.264583px;stroke-linecap:butt;stroke-linejoin:miter;stroke-opacity:1"
       d="m 141.93504,88.085289 -35.21231,20.340871 12.03454,6.95193 23.73709,-13.71207 11.50115,6.64381 -23.56312,13.61157 35.09217,20.27148 35.09906,-20.27546 -11.71654,-6.76822 -23.61036,13.63886 -11.7291,-6.77547 23.6339,-13.65244 z"
       id="path6-9-6-8" />
    <g
       id="g25"
       transform="matrix(1.3490012,0,0,1.3497342,-227.07763,-557.18926)"
       style="stroke-width:0.741088">
      <path
         style="fill:#cccccc;stroke:none;stroke-width:0.196079px;stroke-linecap:butt;stroke-linejoin:miter;stroke-opacity:1"
         d="m 282.75802,493.068 0.18998,9.53278 -1.01435,0.60463 0.10178,9.66057 -16.85367,-9.7197 z"
         id="path16-2-6"
         sodipodi:nodetypes="cccccc" />
      <path
         style="fill:#cccccc;stroke:none;stroke-width:0.196079px;stroke-linecap:butt;stroke-linejoin:miter;stroke-opacity:1"
         d="m 290.88292,508.35707 0.13565,9.63578 17.34219,-10.04013 -0.0814,-9.59763 z"
         id="path17-4-1"
         sodipodi:nodetypes="ccccc" />
      <path
         style="fill:#cccccc;stroke:none;stroke-width:0.196079px;stroke-linecap:butt;stroke-linejoin:miter;stroke-opacity:1"
         d="m 273.55475,478.22422 c 0.0992,3.18535 -0.16379,-6.54701 0.37947,9.78271 l -17.5755,10.1889 -8.68466,-5.0811 z"
         id="path18-5-0"
         sodipodi:nodetypes="ccccc" />
    </g>
  </g>
</svg>
