<?xml version="1.0" encoding="UTF-8" standalone="no"?>
<!-- Created with Inkscape (http://www.inkscape.org/) -->

<svg
   width="210mm"
   height="297mm"
   viewBox="0 0 210 297"
   version="1.1"
   id="svg1"
   inkscape:version="1.3 (0e150ed6c4, 2023-07-21)"
   sodipodi:docname="400.svg"
   inkscape:export-filename="429 to many requests\429  (64).svg"
   inkscape:export-xdpi="64"
   inkscape:export-ydpi="64"
   xmlns:inkscape="http://www.inkscape.org/namespaces/inkscape"
   xmlns:sodipodi="http://sodipodi.sourceforge.net/DTD/sodipodi-0.dtd"
   xmlns="http://www.w3.org/2000/svg"
   xmlns:svg="http://www.w3.org/2000/svg">
  <sodipodi:namedview
     id="namedview1"
     pagecolor="#ffffff"
     bordercolor="#000000"
     borderopacity="0.25"
     inkscape:showpageshadow="2"
     inkscape:pageopacity="0.0"
     inkscape:pagecheckerboard="0"
     inkscape:deskcolor="#d1d1d1"
     inkscape:document-units="mm"
     inkscape:zoom="0.16"
     inkscape:cx="271.875"
     inkscape:cy="728.125"
     inkscape:window-width="1366"
     inkscape:window-height="705"
     inkscape:window-x="-8"
     inkscape:window-y="-8"
     inkscape:window-maximized="1"
     inkscape:current-layer="layer1"
     showgrid="true" />
  <defs
     id="defs1" />
  <g
     inkscape:label="Layer 1"
     inkscape:groupmode="layer"
     id="layer1">
    <path
       style="fill:#f9f9f9;stroke:#000000;stroke-width:0.264583px;stroke-linecap:butt;stroke-linejoin:miter;stroke-opacity:1"
       d="m 107.17197,132.79651 36.92752,-21.33762 61.49479,35.53323 -36.93045,21.33937 -12.20107,-7.05009 24.76337,-14.30891 -12.49114,-7.21771 -24.76903,14.31218 z"
       id="path7" />
    <path
       style="fill:#f9f9f9;stroke:#000000;stroke-width:0.264583px;stroke-linecap:butt;stroke-linejoin:miter;stroke-opacity:1"
       d="m 131.42285,133.09103 12.49789,-7.2216 12.41588,7.17422 -12.46891,7.20486 z"
       id="path8" />
    <path
       style="fill:#f9f9f9;fill-opacity:1;stroke:#000000;stroke-width:0.264583px;stroke-linecap:butt;stroke-linejoin:miter;stroke-opacity:1"
       d="m 8.443549,189.74534 12.435795,-7.18573 24.540042,14.17986 12.164971,-7.02922 -24.377491,-14.08593 12.216591,-7.05906 61.246113,35.38958 -12.621923,7.29327 -24.412983,-14.10645 -24.494683,14.15365 z"
       id="path1-3-0" />
    <g
       id="g22">
      <path
         style="fill:#cccccc;stroke:none;stroke-width:0.264583px;stroke-linecap:butt;stroke-linejoin:miter;stroke-opacity:1"
         d="m 45.391286,168.78753 0.16275,13.82943 12.213453,6.96596 0.16275,14.08522 11.688848,-6.74531 24.440928,14.04717 12.189915,-7.01076 z"
         id="path9-0"
         sodipodi:nodetypes="cccccccc" />
      <path
         style="fill:#cccccc;stroke:none;stroke-width:0.264583px;stroke-linecap:butt;stroke-linejoin:miter;stroke-opacity:1"
         d="m 20.851583,182.53862 -0.0099,14.2989 24.379808,14.30256 0.24339,-14.15286 z"
         id="path10-5"
         sodipodi:nodetypes="ccccc" />
    </g>
    <path
       style="fill:#f9f9f9;fill-opacity:1;stroke:#000000;stroke-width:0.264583px;stroke-linecap:butt;stroke-linejoin:miter;stroke-opacity:1"
       d="m 95.596399,140.48924 -36.895735,21.31929 12.609881,7.28632 24.871917,-14.37163 12.050998,6.96338 -24.68963,14.2663 36.76987,21.24656 36.77708,-21.25073 -12.27668,-7.09378 -24.73914,14.29491 -12.28984,-7.10138 24.76379,-14.30914 z"
       id="path6-9-6" />
    <g
       id="g21">
      <path
         style="fill:#cccccc;stroke:none;stroke-width:0.264583px;stroke-linecap:butt;stroke-linejoin:miter;stroke-opacity:1"
         d="m 108.61881,161.69884 0.26854,13.48562 -1.43378,0.85534 0.14386,13.66641 -23.822565,-13.75005 z"
         id="path16-2"
         sodipodi:nodetypes="cccccc" />
      <path
         style="fill:#cccccc;stroke:none;stroke-width:0.264583px;stroke-linecap:butt;stroke-linejoin:miter;stroke-opacity:1"
         d="m 120.10332,183.32764 0.19174,13.63133 24.51309,-14.20335 -0.11506,-13.57736 z"
         id="path17-4"
         sodipodi:nodetypes="ccccc" />
      <path
         style="fill:#cccccc;stroke:none;stroke-width:0.264583px;stroke-linecap:butt;stroke-linejoin:miter;stroke-opacity:1"
         d="m 95.610039,140.69997 c 0.140218,4.50618 -0.231516,-9.26178 0.536379,13.83918 l -24.84287,14.41381 -12.275717,-7.18802 z"
         id="path18-5"
         sodipodi:nodetypes="ccccc" />
    </g>
    <g
       id="g20">
      <path
         style="fill:#cccccc;stroke:none;stroke-width:0.264583px;stroke-linecap:butt;stroke-linejoin:miter;stroke-opacity:1"
         d="m 131.05465,133.11966 0.0958,13.47107 12.85759,7.29321 12.96915,-7.59227 -0.24947,-13.25188 -12.85426,7.41693 z"
         id="path19"
         sodipodi:nodetypes="ccccccc" />
      <path
         style="fill:#cccccc;fill-opacity:1;stroke:none;stroke-width:0.264583px;stroke-linecap:butt;stroke-linejoin:miter;stroke-opacity:1"
         d="m 181.60407,146.96806 0.20196,13.54937 -13.13828,7.60971 -11.93048,-6.84266 z"
         id="path20"
         sodipodi:nodetypes="ccccc" />
    </g>
  </g>
</svg>
