<?xml version="1.0" encoding="UTF-8" standalone="no"?>
<!-- Created with Inkscape (http://www.inkscape.org/) -->

<svg
   width="210mm"
   height="297mm"
   viewBox="0 0 210 297"
   version="1.1"
   id="svg1"
   inkscape:version="1.3 (0e150ed6c4, 2023-07-21)"
   sodipodi:docname="400.svg"
   inkscape:export-filename="402 payment reqirement\402  (32).svg"
   inkscape:export-xdpi="32"
   inkscape:export-ydpi="32"
   xmlns:inkscape="http://www.inkscape.org/namespaces/inkscape"
   xmlns:sodipodi="http://sodipodi.sourceforge.net/DTD/sodipodi-0.dtd"
   xmlns="http://www.w3.org/2000/svg"
   xmlns:svg="http://www.w3.org/2000/svg">
  <sodipodi:namedview
     id="namedview1"
     pagecolor="#ffffff"
     bordercolor="#000000"
     borderopacity="0.25"
     inkscape:showpageshadow="2"
     inkscape:pageopacity="0.0"
     inkscape:pagecheckerboard="0"
     inkscape:deskcolor="#d1d1d1"
     inkscape:document-units="mm"
     inkscape:zoom="0.16"
     inkscape:cx="271.875"
     inkscape:cy="728.125"
     inkscape:window-width="1366"
     inkscape:window-height="705"
     inkscape:window-x="-8"
     inkscape:window-y="-8"
     inkscape:window-maximized="1"
     inkscape:current-layer="layer1"
     showgrid="true" />
  <defs
     id="defs1" />
  <g
     inkscape:label="Layer 1"
     inkscape:groupmode="layer"
     id="layer1">
    <path
       style="fill:#f6f6f6;fill-opacity:1;stroke:#000000;stroke-width:0.264583px;stroke-linecap:butt;stroke-linejoin:miter;stroke-opacity:1"
       d="m 4.8439485,174.14093 12.6589285,-7.31503 24.980354,14.43502 12.383243,-7.15571 -24.81489,-14.3394 12.435791,-7.18608 62.345035,36.02639 -12.848393,7.4245 -24.85102,-14.36028 -24.934185,14.40834 z"
       id="path1-3" />
    <path
       style="fill:#f6f6f6;fill-opacity:1;stroke:#000000;stroke-width:0.264583px;stroke-linecap:butt;stroke-linejoin:miter;stroke-opacity:1"
       d="m 54.852201,145.44495 37.757704,-21.81847 62.152215,35.91496 -37.7,21.78512 z"
       id="path2-6" />
    <path
       style="fill:#f6f6f6;fill-opacity:1;stroke:#000000;stroke-width:0.264583px;stroke-linecap:butt;stroke-linejoin:miter;stroke-opacity:1"
       d="m 79.565148,145.44495 12.856756,-7.42933 37.362346,21.59001 -12.96222,7.49029 z"
       id="path3-1" />
    <path
       style="fill:#f6f6f6;fill-opacity:1;stroke:#000000;stroke-width:0.264583px;stroke-linecap:butt;stroke-linejoin:miter;stroke-opacity:1"
       d="m 141.38274,95.745121 -37.55774,21.702909 12.83613,7.41744 25.31819,-14.63024 12.26723,7.08868 -25.13263,14.52301 37.42961,21.62888 37.43696,-21.63313 -12.49696,-7.22142 -25.18302,14.55214 -12.51035,-7.22917 25.20811,-14.56662 z"
       id="path6-9" />
    <g
       id="g44">
      <path
         style="fill:#cccccc;stroke:none;stroke-width:0.264583px;stroke-linecap:butt;stroke-linejoin:miter;stroke-opacity:1"
         d="m 42.261474,152.41877 v 14.30682 l 12.74962,7.36744 v 14.17719 l 11.975054,-6.91984 24.915451,14.3975 12.502901,-7.22486 z"
         id="path9" />
      <path
         style="fill:#cccccc;stroke:none;stroke-width:0.264583px;stroke-linecap:butt;stroke-linejoin:miter;stroke-opacity:1"
         d="m 17.266962,166.67382 v 14.6761 l 24.838655,14.35315 v -14.37425 z"
         id="path10" />
    </g>
    <g
       id="g45">
      <path
         style="fill:#cccccc;fill-opacity:1;stroke:none;stroke-width:0.264583px;stroke-linecap:butt;stroke-linejoin:miter;stroke-opacity:1"
         d="m 79.565133,145.33815 v 14.39133 l 37.303647,21.55608 v -14.15521 z"
         id="path11" />
      <path
         style="fill:#cccccc;fill-opacity:1;stroke:none;stroke-width:0.264583px;stroke-linecap:butt;stroke-linejoin:miter;stroke-opacity:1"
         d="m 92.778294,123.72247 v 14.29639 l 37.221856,21.56266 v 14.28453 l 24.71422,-14.31696 z"
         id="path12" />
    </g>
    <g
       id="g46">
      <path
         style="fill:#cccccc;stroke:none;stroke-width:0.264583px;stroke-linecap:butt;stroke-linejoin:miter;stroke-opacity:1"
         d="m 154.38011,117.39131 0.50764,13.77772 -1.21055,0.68121 0.35145,14.10733 -24.67955,-14.10733 z"
         id="path16" />
      <path
         style="fill:#cccccc;stroke:none;stroke-width:0.264583px;stroke-linecap:butt;stroke-linejoin:miter;stroke-opacity:1"
         d="m 166.36843,139.10167 0.19525,14.15129 23.62521,-13.66786 1.17149,-14.63472 z"
         id="path17" />
      <path
         style="fill:#cccccc;stroke:none;stroke-width:0.264583px;stroke-linecap:butt;stroke-linejoin:miter;stroke-opacity:1"
         d="m 141.36693,95.894504 0.46859,14.480906 -25.12295,14.22476 -12.73026,-7.33934 z"
         id="path18" />
    </g>
  </g>
</svg>
